<svg xmlns="http://www.w3.org/2000/svg" width="16.142" height="21.968" viewBox="0 0 16.142 21.968">
    <path id="패스_6186" data-name="패스 6186" d="M6695.173,6843.349a8.154,8.154,0,0,0-3.325-1.722,4.616,4.616,0,0,0,.994-1.2c.865-1.637.423-2.613-.5-3.1s-1.979-.3-2.845,1.333a3.877,3.877,0,0,0-.331.944,3.919,3.919,0,0,0-.331-.944c-.866-1.638-1.921-1.821-2.845-1.333s-1.365,1.463-.5,3.1a4.616,4.616,0,0,0,.994,1.2,8.151,8.151,0,0,0-3.325,1.722,7.392,7.392,0,0,0-1.291,8.445c1.4,2.8,3.55,5.54,5.809,6.724a3.793,3.793,0,0,0,1.291.538h.395a3.794,3.794,0,0,0,1.291-.538c2.259-1.184,4.411-3.927,5.81-6.724A7.391,7.391,0,0,0,6695.173,6843.349Zm-10.014,6.3a5.372,5.372,0,0,1-.92-1.746.92.92,0,1,1,1.841,0A5.371,5.371,0,0,1,6685.159,6849.649Zm2,3.782a5.369,5.369,0,0,1-.921-1.747.921.921,0,0,1,1.841,0A5.37,5.37,0,0,1,6687.164,6853.431Zm2-3.782a5.372,5.372,0,0,1-.92-1.746.921.921,0,0,1,1.841,0A5.371,5.371,0,0,1,6689.167,6849.649Zm2,3.782a5.369,5.369,0,0,1-.921-1.747.921.921,0,0,1,1.841,0A5.37,5.37,0,0,1,6691.171,6853.431Zm2-3.782a5.372,5.372,0,0,1-.92-1.746.92.92,0,1,1,1.841,0A5.371,5.371,0,0,1,6693.174,6849.649Z" transform="translate(-6681.096 -6837.087)" fill="#4a9cff"/>
</svg>
