<svg xmlns="http://www.w3.org/2000/svg" width="38.754" height="28.964" viewBox="0 0 38.754 28.964">
    <g id="그룹_104" data-name="그룹 104" transform="translate(-89.222 -575.998)">
        <path id="패스_12" data-name="패스 12" d="M7372.144,7495.978l6.231-6.933-6.263-6.969a5.551,5.551,0,0,0-7.83-.555l-2.266,1.968a5.547,5.547,0,0,0-.554,7.828l10.38,11.55A5.546,5.546,0,0,1,7372.144,7495.978Z" transform="translate(-7269.878 -6903.164)" fill="#ff6b89" stroke="#ff6b89" stroke-width="2"/>
        <path id="패스_15" data-name="패스 15" d="M7400.294,7483.49l-2.266-1.968a5.55,5.55,0,0,0-7.829.555l-6.264,6.969,6.23,6.933a5.547,5.547,0,0,1,.3,6.89l10.381-11.55A5.548,5.548,0,0,0,7400.294,7483.49Z" transform="translate(-7275.232 -6903.164)" fill="#ff6b89" stroke="#ff6b89" stroke-width="2"/>
        <path id="패스_18" data-name="패스 18" d="M7387.857,7498.681l-6.231-6.933-6.23,6.933a5.548,5.548,0,0,0-.3,6.89l.78.868c.026.023.048.049.075.071l2.266,1.967a4.984,4.984,0,0,0,6.823,0l2.266-1.967c.027-.022.048-.048.076-.071l.779-.868A5.546,5.546,0,0,0,7387.857,7498.681Z" transform="translate(-7273.026 -6905.867)" fill="#ff2458" stroke="#ff2458" stroke-width="2"/>
    </g>
</svg>
