<svg xmlns="http://www.w3.org/2000/svg" width="37.664" height="31.448">
    <g data-name="그룹 324">
        <g data-name="패스 5987" fill="#fff" stroke-linecap="round" stroke-linejoin="round">
            <path d="M28.87 28.93c-1.367-1.272-3.445-2.866-5.992-3.754l-.16-.056H13.06c-3.221 0-6.25-1.255-8.528-3.532A11.98 11.98 0 0 1 1 13.06c0-3.222 1.254-6.25 3.533-8.529A11.986 11.986 0 0 1 13.06 1h11.543c3.221 0 6.25 1.255 8.528 3.532a11.983 11.983 0 0 1 3.532 8.529c0 4.77-2.826 9.1-7.199 11.03l-.596.265v4.575Z"/>
            <path d="M13.061 2C6.961 2 2 6.962 2 13.06c0 6.1 4.962 11.06 11.061 11.06h9.488c.224 0 .446.038.658.111 1.802.628 3.38 1.588 4.662 2.558v-1.782c0-.792.467-1.51 1.192-1.83a11.073 11.073 0 0 0 6.603-10.116c0-2.955-1.15-5.732-3.24-7.822A10.99 10.99 0 0 0 24.605 2H13.061m0-2h11.543c7.213 0 13.06 5.848 13.06 13.06 0 5.338-3.207 9.92-7.795 11.947v6.441s-2.958-3.808-7.32-5.328H13.06C5.848 26.12 0 20.273 0 13.06 0 5.849 5.848 0 13.061 0Z" fill="#333"/>
        </g>
        <g data-name="그룹 113">
            <g data-name="그룹 110" fill="#333">
                <path data-name="패스 19" d="M13.734 13.648a2.367 2.367 0 1 1-2.366-2.367 2.367 2.367 0 0 1 2.366 2.367Z"/>
                <path data-name="패스 20" d="M21.689 13.648a2.367 2.367 0 1 1-2.367-2.367 2.367 2.367 0 0 1 2.367 2.367Z"/>
                <path data-name="패스 21" d="M29.645 13.648a2.367 2.367 0 1 1-2.367-2.367 2.367 2.367 0 0 1 2.367 2.367Z"/>
            </g>
        </g>
    </g>
</svg>