<svg xmlns="http://www.w3.org/2000/svg" width="78" height="78" viewBox="0 0 78 78">
    <g id="그룹_660" data-name="그룹 660" transform="translate(-30 -976)">
        <circle id="타원_18" data-name="타원 18" cx="39" cy="39" r="39" transform="translate(30 976)" fill="#ebf4ff"/>
        <g id="그룹_146" data-name="그룹 146" transform="translate(57.412 912.002)">
            <path id="패스_5842" data-name="패스 5842" d="M10.447,102.357a.967.967,0,0,0-.967.967,5.646,5.646,0,0,0,.967,1.835,5.646,5.646,0,0,0,.967-1.835A.967.967,0,0,0,10.447,102.357Z" transform="translate(3.201 4.376)" fill="#4a9cff"/>
            <path id="패스_5843" data-name="패스 5843" d="M6.982,102.357a.967.967,0,0,0-.967.967,5.646,5.646,0,0,0,.967,1.835,5.646,5.646,0,0,0,.967-1.835A.967.967,0,0,0,6.982,102.357Z" transform="translate(2.456 4.376)" fill="#4a9cff"/>
            <path id="패스_5844" data-name="패스 5844" d="M5.249,99.087a.966.966,0,0,0-.967.966,5.628,5.628,0,0,0,.967,1.836,5.628,5.628,0,0,0,.967-1.836A.967.967,0,0,0,5.249,99.087Z" transform="translate(2.084 3.673)" fill="#4a9cff"/>
            <path id="패스_5845" data-name="패스 5845" d="M8.715,99.087a.967.967,0,0,0-.968.966,5.626,5.626,0,0,0,.968,1.836,5.628,5.628,0,0,0,.967-1.836A.967.967,0,0,0,8.715,99.087Z" transform="translate(2.829 3.673)" fill="#4a9cff"/>
            <path id="패스_5846" data-name="패스 5846" d="M12.18,99.087a.966.966,0,0,0-.967.966,5.628,5.628,0,0,0,.967,1.836,5.628,5.628,0,0,0,.967-1.836A.966.966,0,0,0,12.18,99.087Z" transform="translate(3.574 3.673)" fill="#4a9cff"/>
            <path id="패스_5847" data-name="패스 5847" d="M21.125,82H1.962a7.376,7.376,0,0,0-7.375,7.376v20.15a8.833,8.833,0,0,0,3.732,7.212l8.48,6a8.838,8.838,0,0,0,10.417-.152l7.76-5.839a8.836,8.836,0,0,0,3.523-7.061V89.374A7.376,7.376,0,0,0,21.125,82ZM19.21,107.815c-1.47,2.939-3.73,5.821-6.1,7.065a3.99,3.99,0,0,1-1.356.564h-.414a3.99,3.99,0,0,1-1.356-.564c-2.374-1.244-4.634-4.126-6.1-7.065a7.769,7.769,0,0,1,1.356-8.873,7.221,7.221,0,0,1,2.188-1.353,2.121,2.121,0,0,1-.832-.674,7.718,7.718,0,0,1-1.383-4.331A7.709,7.709,0,0,1,9.012,95.07l1.356,1.781h.118a2.382,2.382,0,0,1-.465-1.65,7.717,7.717,0,0,1,1.522-4.285A7.714,7.714,0,0,1,13.066,95.2a2.877,2.877,0,0,1-.27,1.358,13.323,13.323,0,0,0,1.278-1.49,7.709,7.709,0,0,1,3.806-2.487A7.718,7.718,0,0,1,16.5,96.914a2.125,2.125,0,0,1-.844.668,7.248,7.248,0,0,1,2.2,1.36A7.769,7.769,0,0,1,19.21,107.815Z" fill="#4a9cff"/>
        </g>
    </g>
</svg>
